<svg width="225" height="15" viewBox="0 0 225 15" fill="none" xmlns="http://www.w3.org/2000/svg">
<path d="M10.1319 14.1849H10.9596C12.6007 14.1849 14.0563 14.0441 15.3263 13.7624C16.5964 13.4806 17.581 13.1426 18.2945 12.7341C18.9938 12.3255 19.5646 11.8607 20.0212 11.3254C20.4636 10.7901 20.7633 10.3112 20.906 9.87452C21.0487 9.45193 21.1201 9.02934 21.1201 8.62084V8.42363H16.0969C16.0969 8.43772 16.0826 8.4518 16.0684 8.47998C15.5118 10.0576 13.6852 10.8465 10.5743 10.8465C9.53257 10.8465 8.61927 10.7338 7.84867 10.5084C7.07807 10.2689 6.49299 9.95904 6.09342 9.57871C5.70812 9.18429 5.42272 8.78987 5.2372 8.38137C5.05169 7.95878 4.96607 7.53619 4.96607 7.09951V6.87413C4.96607 6.40928 5.03742 5.97261 5.20866 5.57819C5.36564 5.18377 5.63677 4.81753 6.02207 4.46537C6.42164 4.09913 6.99245 3.8174 7.76305 3.62019C8.51938 3.42298 9.44695 3.31029 10.5315 3.31029C11.4448 3.31029 12.2439 3.38072 12.9432 3.53567C13.6424 3.67653 14.1704 3.83148 14.5414 4.00052C14.8982 4.16956 15.1979 4.38085 15.4547 4.64849C15.6973 4.90204 15.8543 5.08517 15.9114 5.21194C15.9827 5.32464 16.0256 5.45141 16.0684 5.60636H21.0915V5.39507C21.0915 5.01474 21.0344 4.62032 20.906 4.21182C20.7776 3.80331 20.4922 3.33846 20.0498 2.81727C19.6074 2.28199 19.0366 1.83122 18.3373 1.42272C17.6381 1.0283 16.6535 0.690231 15.3834 0.408504C14.0991 0.140864 12.6292 0 10.9596 0H10.1319C8.41948 0 6.9211 0.15495 5.63677 0.478936C4.35244 0.802922 3.36779 1.19734 2.68282 1.66219C1.98357 2.12704 1.42703 2.69049 0.998922 3.33846C0.570812 3.98643 0.299677 4.57806 0.171244 5.09926C0.0570819 5.63454 0 6.19799 0 6.77553V7.31081C0 7.69114 0.0285415 8.07147 0.0856227 8.4518C0.142704 8.83213 0.271136 9.26881 0.470921 9.73366C0.670705 10.1985 0.9133 10.6352 1.21298 11.0437C1.51265 11.4381 1.92649 11.8466 2.45449 12.241C2.98249 12.6495 3.59612 12.9876 4.28109 13.2552C4.96607 13.537 5.80802 13.7624 6.80694 13.9314C7.82013 14.1004 8.91894 14.1849 10.1319 14.1849ZM103.531 5.63453C103.488 5.26829 103.374 4.87387 103.203 4.40902C103.046 3.95826 102.818 3.53567 102.546 3.15534C102.275 2.77501 101.89 2.39468 101.405 2.01435C100.92 1.63401 100.349 1.31003 99.7067 1.04239C99.0502 0.788835 98.2511 0.57754 97.295 0.408504C96.3246 0.253554 95.2543 0.169036 94.0842 0.169036H31.8513C30.6812 0.169036 29.5966 0.253554 28.6262 0.408504C27.6559 0.57754 26.8425 0.788835 26.2003 1.04239C25.5439 1.31003 24.9873 1.63401 24.4879 2.01435C24.0027 2.39468 23.6316 2.77501 23.3605 3.15534C23.0894 3.53567 22.861 3.95826 22.7041 4.42311C22.5328 4.88796 22.4329 5.28238 22.3758 5.63453C22.333 5.98669 22.3045 6.36702 22.3045 6.76144V7.29672C22.3045 7.67705 22.333 8.0433 22.3758 8.40954C22.4329 8.7617 22.5328 9.17021 22.7041 9.63506C22.861 10.0999 23.0894 10.5225 23.3605 10.9028C23.6316 11.2972 24.0169 11.6776 24.5021 12.072C25.0016 12.4523 25.5581 12.7904 26.2003 13.058C26.8567 13.3257 27.6559 13.537 28.6262 13.706C29.5966 13.875 30.6812 13.9596 31.8513 13.9596H94.0842C95.2543 13.9596 96.3389 13.875 97.295 13.706C98.2654 13.537 99.0645 13.3257 99.7067 13.058C100.349 12.7904 100.92 12.4523 101.419 12.072C101.904 11.6776 102.29 11.2972 102.561 10.9028C102.818 10.5225 103.046 10.0999 103.203 9.63506C103.374 9.17021 103.488 8.7617 103.531 8.40954C103.588 8.0433 103.617 7.67705 103.617 7.29672V6.76144C103.617 6.36702 103.588 5.98669 103.531 5.63453ZM99.1644 7.14177C99.1644 7.56436 99.093 7.97287 98.9361 8.3532C98.7791 8.73353 98.5222 9.11386 98.1512 9.49419C97.7659 9.86044 97.1951 10.1703 96.4388 10.3816C95.7395 10.5929 94.8976 10.7056 93.9272 10.7197C93.8416 10.7197 32.3223 10.7197 32.2366 10.7197C31.1521 10.7197 30.2102 10.607 29.4539 10.3816C28.6833 10.1563 28.1268 9.84635 27.7558 9.46602C27.3847 9.08569 27.1279 8.70536 26.9852 8.32503C26.8282 7.93061 26.7568 7.53619 26.7568 7.09951V6.88822C26.7568 4.56397 28.5834 3.39481 32.2366 3.39481C32.3223 3.39481 93.8558 3.39481 93.9272 3.39481C94.7121 3.40889 95.4113 3.47933 96.0106 3.62019C96.6814 3.76105 97.2094 3.95826 97.5946 4.18364C97.9799 4.40902 98.3082 4.67666 98.5508 5.00065C98.7934 5.32464 98.9503 5.63454 99.0359 5.93035C99.1216 6.24025 99.1644 6.55015 99.1644 6.88822V7.14177ZM105.401 0.295813V13.9596H110.081V4.90205L120.327 13.9596H124.994V0.295813H120.327V8.88848L110.681 0.295813H105.401ZM132.885 13.9596H137.666V3.52158H144.173V0.295813H126.392V3.52158H132.885V13.9596ZM161.897 8.25459C161.411 7.7334 160.798 7.38124 160.013 7.15586C161.711 6.62058 162.553 5.63454 162.553 4.21182V3.98643C162.553 1.66219 160.584 0.507108 156.617 0.507108H145.571V13.9596H149.867V9.18429H155.461C156.502 9.18429 157.23 9.36742 157.658 9.74775C158.101 10.114 158.315 10.7197 158.315 11.5508V13.9596H162.61V10.2549C162.61 9.42376 162.368 8.7617 161.897 8.25459ZM158.087 4.87387C158.087 5.28238 157.944 5.59228 157.658 5.83174C157.387 6.07121 156.945 6.19799 156.36 6.19799H149.867V3.56384H156.36C156.945 3.56384 157.387 3.67653 157.658 3.916C157.944 4.15547 158.087 4.47945 158.087 4.85979V4.87387ZM174.768 0.0422584C173.456 0.0422584 172.257 0.126777 171.172 0.295813C170.088 0.464849 169.189 0.676144 168.461 0.943784C167.733 1.21142 167.105 1.5495 166.563 1.94391C166.021 2.32425 165.607 2.71866 165.293 3.11308C164.993 3.5075 164.751 3.94417 164.565 4.40902C164.38 4.88796 164.266 5.29646 164.208 5.66271C164.151 6.01487 164.123 6.40928 164.123 6.8037V7.36715C164.123 7.74749 164.151 8.12782 164.208 8.49406C164.266 8.87439 164.38 9.2829 164.565 9.76183C164.751 10.2267 164.993 10.6634 165.293 11.0578C165.607 11.4663 166.021 11.8607 166.577 12.2551C167.12 12.6636 167.762 12.9876 168.475 13.2693C169.189 13.5511 170.088 13.7624 171.172 13.9455C172.257 14.1145 173.456 14.199 174.768 14.199H175.411C176.724 14.199 177.922 14.1145 178.993 13.9455C180.063 13.7624 180.962 13.5511 181.675 13.2693C182.403 12.9876 183.031 12.6636 183.588 12.2551C184.13 11.8607 184.558 11.4663 184.843 11.0578C185.143 10.6634 185.386 10.2267 185.585 9.76183C185.771 9.2829 185.885 8.87439 185.942 8.49406C185.999 8.12782 186.028 7.74749 186.028 7.36715V6.8037C186.028 6.40928 185.999 6.01487 185.942 5.64862C185.885 5.28238 185.771 4.85979 185.585 4.39494C185.386 3.93009 185.143 3.5075 184.843 3.11308C184.529 2.71866 184.116 2.32425 183.573 1.94391C183.031 1.5495 182.403 1.21142 181.675 0.943784C180.948 0.676144 180.049 0.464849 178.978 0.295813C177.908 0.126777 176.724 0.0422584 175.411 0.0422584H174.768ZM181.076 7.19812C181.076 7.6348 180.99 8.05738 180.819 8.4518C180.648 8.83213 180.362 9.22655 179.934 9.60688C179.521 10.0013 178.878 10.3112 178.036 10.5366C177.294 10.7338 176.424 10.8465 175.396 10.8606C175.254 10.8747 175.011 10.8747 174.911 10.8747C173.812 10.8465 172.871 10.7338 172.086 10.5225C171.229 10.283 170.602 9.97313 170.202 9.57871C169.788 9.19838 169.503 8.80396 169.332 8.40954C169.16 8.01513 169.089 7.59254 169.089 7.15586V6.94456C169.089 4.62032 171.001 3.42298 174.84 3.35255C174.954 3.35255 175.311 3.35255 175.482 3.36664C176.253 3.38072 176.952 3.45115 177.565 3.57793C178.308 3.73288 178.893 3.93009 179.321 4.15547C179.763 4.39494 180.106 4.67666 180.377 5.00065C180.648 5.33872 180.833 5.66271 180.933 5.95852C181.019 6.26842 181.076 6.59241 181.076 6.94456V7.19812ZM187.812 0.281727V13.9596H203.038V10.5507H192.535V0.281727H187.812ZM217.651 0.408504H210.616L203.252 13.9314H207.904L209.203 11.4522H219.064L220.362 13.9314H225L217.651 0.408504ZM210.801 8.40954L213.398 3.43707H214.882L217.494 8.40954H210.801Z" fill="#fff"/>
</svg>
