<svg width="56" height="56" viewBox="0 0 56 56" fill="none" xmlns="http://www.w3.org/2000/svg">
<path fill-rule="evenodd" clip-rule="evenodd" d="M28 0C43.456 0 56 12.544 56 28C56 43.456 43.456 56 28 56C12.544 56 0 43.456 0 28C0 12.544 12.544 0 28 0ZM27.4773 38.2293H28.6533C30.968 38.2293 33.0213 38.024 34.8133 37.6133C36.6178 37.2027 38.0178 36.7111 39.0133 36.1387C40.0089 35.5538 40.824 34.8818 41.4587 34.1227C42.0933 33.3511 42.5102 32.6604 42.7093 32.0507C42.9084 31.4284 43.008 30.8249 43.008 30.24V29.96H35.896C35.896 29.9724 35.8898 29.9973 35.8773 30.0347C35.0809 32.312 32.4862 33.4507 28.0933 33.4507C26.6249 33.4507 25.3431 33.2827 24.248 32.9467C23.1529 32.6107 22.3253 32.1627 21.7653 31.6027C21.2178 31.0551 20.8133 30.4827 20.552 29.8853C20.2907 29.3004 20.16 28.6907 20.16 28.056V27.7387C20.16 27.0667 20.272 26.4507 20.496 25.8907C20.7324 25.3307 21.1244 24.7956 21.672 24.2853C22.2196 23.7751 23.0347 23.3769 24.1173 23.0907C25.2 22.792 26.5067 22.6427 28.0373 22.6427C29.3316 22.6427 30.4702 22.7422 31.4533 22.9413C32.4364 23.1529 33.1831 23.3831 33.6933 23.632C34.2036 23.8684 34.6391 24.1733 35 24.5467C35.3484 24.92 35.5662 25.1876 35.6533 25.3493C35.7404 25.5236 35.8151 25.7164 35.8773 25.928H42.9707V25.6293C42.9707 25.0818 42.8836 24.5156 42.7093 23.9307C42.5227 23.3333 42.1182 22.6613 41.496 21.9147C40.8738 21.168 40.0711 20.5084 39.088 19.936C38.0924 19.3636 36.6924 18.8782 34.888 18.48C33.0836 18.0942 31.0053 17.9013 28.6533 17.9013H27.4773C25.0507 17.9013 22.9351 18.1253 21.1307 18.5733C19.3138 19.0338 17.9138 19.6 16.9307 20.272C15.96 20.944 15.1698 21.7467 14.56 22.68C13.9502 23.6133 13.5644 24.4533 13.4027 25.2C13.2284 25.9591 13.1413 26.7618 13.1413 27.608V28.3733C13.1413 28.9209 13.1849 29.4684 13.272 30.016C13.3591 30.5636 13.5396 31.1671 13.8133 31.8267C14.0871 32.4987 14.4356 33.1271 14.8587 33.712C15.2818 34.2844 15.8667 34.8569 16.6133 35.4293C17.36 36.0018 18.2187 36.4871 19.1893 36.8853C20.16 37.2836 21.3547 37.6071 22.7733 37.856C24.192 38.0924 25.76 38.2169 27.4773 38.2293Z" fill="#ffffff"/>
</svg>
