<svg width="16" height="16" viewBox="0 0 16 16" fill="none" xmlns="http://www.w3.org/2000/svg">
<path d="M0 4.26667C0 1.91025 1.91025 0 4.26667 0H11.7333C14.0897 0 16 1.91025 16 4.26667V11.7333C16 14.0897 14.0897 16 11.7333 16H4.26667C1.91025 16 0 14.0897 0 11.7333V4.26667Z" fill="#121212"/>
<path fill-rule="evenodd" clip-rule="evenodd" d="M8.92432 9.7956C9.53495 9.49934 9.92846 8.9347 10.0278 8.30403L13.9791 8.92653C13.6847 10.795 12.5084 12.5026 10.6704 13.3944L8.92432 9.7956Z" fill="white"/>
<path fill-rule="evenodd" clip-rule="evenodd" d="M10.0276 8.30403C10.0644 8.07036 10.0599 7.8306 10.0114 7.59512L13.9291 6.78764C14.0766 7.50331 14.089 8.22766 13.9789 8.92652C13.807 10.0176 12.7831 10.7628 11.692 10.5909C10.6009 10.419 9.85569 9.39514 10.0276 8.30403Z" fill="#1AB17B"/>
<path fill-rule="evenodd" clip-rule="evenodd" d="M9.85311 7.09222C9.77746 6.93631 9.68585 6.79692 9.58203 6.67371L12.641 4.09633C12.9568 4.47111 13.2303 4.8894 13.4519 5.34618C13.6735 5.80296 13.8328 6.27669 13.9317 6.75668C14.1547 7.83851 13.4585 8.89627 12.3766 9.11925C11.2948 9.34223 10.237 8.646 10.0141 7.56417C9.98154 7.40637 9.92876 7.24814 9.85311 7.09222Z" fill="#1AB17B"/>
<path fill-rule="evenodd" clip-rule="evenodd" d="M9.57949 6.70466C9.00359 6.02116 8.01631 5.79015 7.17815 6.1968C6.18437 6.67896 5.76962 7.87544 6.25178 8.86922C6.73393 9.863 7.93042 10.2778 8.9242 9.7956L10.6702 13.3944C7.68891 14.8409 4.09945 13.5966 2.65298 10.6153C1.20651 7.63393 2.45076 4.04448 5.4321 2.59801C7.95636 1.3733 10.9116 2.07784 12.6384 4.12728C13.3502 4.97198 13.2424 6.23372 12.3977 6.94544C11.5529 7.65716 10.2912 7.54936 9.57949 6.70466Z" fill="white"/>
</svg>
