<svg width="22" height="15" viewBox="0 0 22 15" fill="none" xmlns="http://www.w3.org/2000/svg">
<path fill-rule="evenodd" clip-rule="evenodd" d="M6.81418 13.9061C5.81103 13.7368 4.96627 13.5154 4.2799 13.242C3.59353 12.9686 2.98636 12.63 2.45838 12.2264C1.93041 11.8358 1.51463 11.4321 1.21104 11.0155C0.920657 10.6118 0.676467 10.1822 0.478477 9.72643C0.280486 9.25769 0.148492 8.82801 0.082495 8.43739C0.0164981 8.05979 -0.00989945 7.68219 0.00329994 7.30459V6.77725C0.00329994 6.1783 0.0626959 5.61842 0.18149 5.09759C0.300285 4.56374 0.570873 3.9713 0.993254 3.32027C1.42883 2.66924 1.98981 2.11586 2.67618 1.66013C3.37574 1.19139 4.3657 0.794259 5.64604 0.468743C6.92638 0.156247 8.41791 0 10.1206 0H10.9522C12.6285 0 14.1068 0.136718 15.3872 0.410152C16.6543 0.683586 17.6377 1.02212 18.3372 1.42576C19.0368 1.81638 19.6044 2.27861 20.04 2.81246C20.4887 3.33329 20.7791 3.79552 20.9111 4.19916C21.0299 4.61582 21.0893 5.01296 21.0893 5.39056V5.58587H16.0603C16.0208 5.44264 15.9746 5.31243 15.9218 5.19525C15.8558 5.07806 15.6974 4.88926 15.4466 4.62884C15.1958 4.38145 14.8922 4.16661 14.5358 3.98432C14.1794 3.81505 13.6515 3.65881 12.9519 3.51558C12.2523 3.37235 11.4472 3.30074 10.5364 3.30074C9.45406 3.30074 8.5301 3.4049 7.76454 3.61323C6.99897 3.82156 6.4182 4.10151 6.02222 4.45306C5.63944 4.80462 5.36885 5.17571 5.21046 5.56633C5.03886 5.96997 4.95307 6.39966 4.95307 6.85538V7.08975C4.95307 7.53245 5.04546 7.95562 5.23025 8.35926C5.41505 8.77592 5.70543 9.17957 6.10141 9.57019C6.4974 9.94779 7.07817 10.2538 7.84373 10.4881C8.6225 10.7225 9.53325 10.8397 10.576 10.8397C13.6779 10.8397 15.506 10.0454 16.0603 8.45692C16.0735 8.4439 16.0802 8.43088 16.0802 8.41786H21.1091V8.61317C21.1091 9.01681 21.0431 9.43347 20.9111 9.86315C20.7659 10.2928 20.4689 10.7746 20.0202 11.3084C19.5714 11.8423 18.9906 12.311 18.2778 12.7147C17.5783 13.1183 16.5949 13.4634 15.3278 13.7498C14.0606 14.0363 12.6021 14.1795 10.9522 14.1795H10.1206C8.91948 14.1795 7.81733 14.0884 6.81418 13.9061Z" fill="#EEEEEE"/>
</svg>
