<svg width="100" height="100" viewBox="0 0 100 100">
<path 
d="M6.67046 16.3434C3.57103 17.1536 1.15062 19.593 0.333608 22.7299C-0.111203 24.4373 -0.111203 45.0157 0.333608 46.7231C1.17814 49.9654 3.91766 52.5627 7.21676 53.2485C8.68352 53.5536 91.3208 53.5528 92.7832 53.2479C96.1247 52.5511 98.8119 50.0037 99.6664 46.7231C100.111 45.0157 100.111 24.4373 99.6664 22.7299C99.0643 20.4182 97.3676 18.2172 95.3348 17.1107C93.166 15.9305 95.7913 15.9945 49.9024 16.0034C11.0616 16.0113 7.84465 16.0366 6.67046 16.3434ZM93.5247 19.5781C94.8558 20.2958 95.6508 21.0833 96.2455 22.2734L96.8427 23.4684L96.8408 34.7089L96.8388 45.9492L96.3753 46.945C95.3688 49.1066 93.7154 50.1711 91.1636 50.3005L89.4859 50.3856L89.3549 48.817C89.2831 47.9541 89.0963 46.8859 88.94 46.4428C88.3258 44.7017 86.8159 43.1859 84.9818 42.469C84.2147 42.1692 81.4284 42.1433 50 42.1433C18.5716 42.1433 15.7853 42.1692 15.0182 42.469C13.1841 43.1859 11.6742 44.7017 11.06 46.4428C10.9037 46.8859 10.7169 47.9541 10.6451 48.817L10.5141 50.3856L8.83635 50.3005C6.28459 50.1711 4.63124 49.1066 3.6247 46.945L3.16115 45.9492L3.1635 34.7265C3.16564 23.9966 3.18262 23.4667 3.54878 22.66C4.10289 21.4392 4.59357 20.8134 5.47811 20.2004C7.13244 19.0541 4.0943 19.124 50.2928 19.1687C91.5786 19.2087 92.8619 19.2208 93.5247 19.5781ZM83.1075 26.6204C81.1475 27.3191 79.8622 29.2047 79.8622 31.3819C79.8622 32.9621 80.3492 34.0443 81.5261 35.0804C84.153 37.3926 88.397 36.2852 89.5181 32.9949C90.6322 29.7253 88.1868 26.3094 84.7557 26.3424C84.2649 26.3471 83.5232 26.4722 83.1075 26.6204ZM85.8425 29.6856C86.3845 29.9509 86.7575 30.6619 86.7368 31.3905C86.6841 33.2435 84.4913 33.986 83.2896 32.5579C82.4382 31.5461 82.7409 30.2163 83.9616 29.6048C84.6316 29.2691 85.0261 29.2861 85.8425 29.6856ZM84.3025 45.4849C85.594 46.1101 86.1839 47.1348 86.2735 48.9081L86.3459 50.3407H50H13.6541L13.7265 48.9081C13.8155 47.147 14.4007 46.1237 15.6814 45.4898L16.5269 45.0713L49.9871 45.0711L83.4475 45.0709L84.3025 45.4849ZM60.6284 56.0897C59.9275 56.7904 60.0284 57.3478 61.097 58.6793C62.4838 60.4072 62.9573 61.4981 63.0449 63.168C63.1101 64.4088 63.0502 64.7246 62.5433 65.8076C62.2267 66.4841 61.4169 67.6505 60.744 68.3994C58.3882 71.0204 57.4447 72.9133 57.2727 75.363C57.212 76.2258 57.2696 77.3899 57.4076 78.0955C57.908 80.6519 60.1198 84.3308 61.3141 84.5931C62.0399 84.7526 62.8084 84.3248 63.0802 83.61C63.3078 83.0112 63.1856 82.688 62.2691 81.4654C61.2977 80.1696 60.5734 78.5537 60.3206 77.1184C60.1547 76.1765 60.176 75.7162 60.4323 74.7161C60.8369 73.1372 61.3549 72.2801 63.0732 70.3465C65.5114 67.6029 66.4964 64.8653 66.0401 62.1002C65.584 59.3367 63.1144 55.6106 61.7388 55.6106C61.3287 55.6106 60.9395 55.7784 60.6284 56.0897ZM51.6272 61.3638C50.7643 61.9681 50.8635 62.7958 51.9672 64.1984C53.2692 65.8529 53.0664 67.2998 51.2476 69.3331C49.4754 71.314 48.8629 73.5939 49.5035 75.8255C50.1237 77.9871 51.4841 79.8126 52.4747 79.8126C53.2444 79.8126 53.8468 79.3444 54.0052 78.6226C54.113 78.1324 54.0226 77.8579 53.5259 77.1662C52.6794 75.9875 52.3421 75.1001 52.3421 74.0514C52.3421 72.975 52.6255 72.389 53.8144 71.0064C55.3258 69.2486 55.7455 68.2604 55.7521 66.4429C55.7587 64.6223 55.228 63.2399 54.0008 61.8816C53.2009 60.9963 52.4011 60.8218 51.6272 61.3638ZM68.5419 61.4659C67.9349 62.0729 68.0415 62.9816 68.8372 63.9827C70.2772 65.7944 70.1931 67.1147 68.516 69.0253C66.1157 71.7598 65.6548 74.4667 67.1031 77.3247C68.2538 79.5954 69.5777 80.356 70.6001 79.3335C71.2438 78.69 71.2038 78.1394 70.4285 76.98C68.8267 74.5838 68.927 73.1496 70.8499 70.9521C72.2306 69.3743 72.7144 68.304 72.8001 66.6381C72.8911 64.8719 72.3649 63.4142 71.1483 62.0608C70.4133 61.2434 70.149 61.0755 69.5972 61.0755C69.1924 61.0755 68.7794 61.2284 68.5419 61.4659ZM29.5951 61.9451C29.1331 62.4068 29.1159 62.5199 29.1159 65.0888C29.1159 68.1822 29.3835 68.0424 26.6017 66.4018C24.4738 65.147 23.6465 64.9937 23.0402 65.7424C22.6382 66.2392 22.5693 66.9541 22.8697 67.5154C22.9768 67.7153 24.0308 68.4302 25.2118 69.1038C26.393 69.7774 27.3593 70.3892 27.3593 70.4634C27.3593 70.5374 26.4695 71.1018 25.3822 71.7176C23.0397 73.0439 22.6751 73.3731 22.6751 74.1613C22.6751 74.8746 23.4329 75.7139 24.077 75.7139C24.321 75.7139 25.5069 75.143 26.7121 74.4452C27.9175 73.7475 28.9514 73.1766 29.0098 73.1766C29.0681 73.1766 29.1159 74.2233 29.1159 75.5027C29.1159 76.7821 29.1706 77.9711 29.2371 78.1448C29.42 78.6215 30.4045 79.0589 30.9731 78.9162C31.8824 78.6878 32.0436 78.1847 32.0436 75.5728C32.0436 74.2549 32.0922 73.1766 32.1515 73.1766C32.2109 73.1766 33.1112 73.6733 34.1521 74.2807C36.3001 75.5336 37.1309 75.6891 37.729 74.9506C38.1295 74.456 38.2001 73.7393 37.9031 73.1842C37.798 72.9878 36.8319 72.3182 35.7561 71.696C34.6803 71.0735 33.8004 70.5155 33.8006 70.4554C33.801 70.3955 34.4299 69.9952 35.1985 69.5658C37.6202 68.2128 38.0941 67.8008 38.0941 67.049C38.0941 66.1593 37.5342 65.4996 36.779 65.4996C36.4135 65.4996 35.437 65.9261 34.2476 66.6055C33.1825 67.2139 32.2509 67.7116 32.1773 67.7116C32.1037 67.7116 32.0436 66.4884 32.0436 64.9934C32.0436 62.2892 32.0409 62.2728 31.5293 61.8705C30.8472 61.3338 30.1804 61.3595 29.5951 61.9451Z"/>
</svg>
