<svg width="100" height="100" viewBox="0 0 100 100" fill="none" xmlns="http://www.w3.org/2000/svg">
<path fillRule="evenodd" clip-rule="evenodd" d="M0.842773 7.13954C0.608203 7.23701 0.322461 7.49029 0.208008 7.70249C0.065625 7.96662 0 13.1686 0 24.1942V40.3L0.479492 40.7755C0.949414 41.242 1.02129 41.2513 4.16406 41.2513C7.11094 41.2513 7.41074 41.2189 7.88379 40.8496C8.37793 40.4639 8.39844 40.3717 8.39844 38.5241V36.6004H13.0859H17.7734V40.573V44.5457H15.9092C14.19 44.5457 14.0074 44.5827 13.5654 45.0214C13.0953 45.4877 13.0859 45.559 13.0859 48.6772C13.0859 51.6011 13.1186 51.8985 13.4908 52.3679C13.8793 52.858 13.9732 52.8785 15.8252 52.8785H17.7549L17.8131 57.9344C17.8711 62.9822 17.8719 62.9909 18.3322 63.3605C18.9297 63.8401 19.5471 63.8296 20.1885 63.3289L20.7031 62.9273V57.9028V52.8785H30.2734H39.8438L39.8471 58.2561C39.851 64.1951 40.016 65.5342 40.9578 67.2653C42.1766 69.5049 44.7818 71.336 47.168 71.6299L48.3398 71.7743L48.3906 81.3456L48.4412 90.917L44.582 90.8019C40.4588 90.6788 38.3369 90.347 35.9359 89.45C28.2225 86.5682 22.8494 80.3808 21.1924 72.4719C21.0271 71.6842 20.8359 70.0012 20.7672 68.7318C20.6504 66.5789 20.6096 66.3987 20.158 66.0463C19.5447 65.5677 18.9205 65.5658 18.3322 66.0405C17.8918 66.3959 17.8723 66.5161 17.8953 68.7051C17.9629 75.0939 20.4914 81.0765 25.1361 85.8372C28.9926 89.7903 33.6734 92.2834 39.1602 93.3066C40.9041 93.6317 42.1273 93.6703 50.5859 93.6664C59.6576 93.6624 60.1428 93.6439 62.0484 93.2292C68.457 91.8345 73.6109 88.6752 77.4344 83.7974C81.3688 78.778 82.9984 73.5178 83.0059 65.8138L83.0078 63.7306H84.8721C86.5912 63.7306 86.7738 63.6936 87.2158 63.2548C87.6863 62.7882 87.6953 62.7194 87.6953 59.5642C87.6953 56.4089 87.6863 56.3401 87.2158 55.8735C86.7738 55.4348 86.5912 55.3977 84.8721 55.3977H83.0078V53.1692V50.9406H87.3047H91.6016V52.8644C91.6016 54.7119 91.6221 54.8042 92.1162 55.1898C92.5893 55.5592 92.8891 55.5915 95.8359 55.5915C98.9787 55.5915 99.0506 55.5822 99.5205 55.1158L100 54.6402V38.4501C100 22.588 99.9922 22.2524 99.6143 21.8774C99.0471 21.3147 98.5939 21.2562 95.3455 21.3253C91.6328 21.4044 91.7361 21.3288 91.6016 24.0587L91.5039 26.039L85.0586 26.1437C80.8172 26.2124 78.4336 26.3252 78.0881 26.4735C77.1178 26.8895 76.8322 28.1174 77.5547 28.7662C77.9393 29.1115 78.3268 29.1276 84.7832 29.0675L91.6053 29.0041L91.5547 38.4706L91.5039 47.9369L86.4779 48.0338L81.4521 48.1307L80.8139 48.7636L80.1758 49.3964L80.0781 52.3487L79.9805 55.3008H70.4102H60.8398L60.8793 51.8127C60.9227 47.9852 61.1234 46.4021 61.8619 44.0612C63.6219 38.483 67.635 33.869 73.0881 31.1538C74.6148 30.3936 75.0182 30.1041 75.1219 29.6938C75.3041 28.9739 74.984 28.2147 74.3764 27.9257C73.9361 27.7164 73.7051 27.7374 72.8184 28.0674C68.0352 29.8467 62.7342 34.8991 60.3484 39.9521C58.6098 43.6347 58.0598 46.2396 57.8768 51.6577L57.7506 55.3977H55.9172C54.2182 55.3977 54.0479 55.4336 53.5916 55.8861L53.0994 56.3744L53.1609 59.6826C53.2377 63.8009 53.1889 63.7306 55.9787 63.7306C57.7508 63.7306 57.8125 63.7453 57.8105 64.1666C57.8074 64.8867 56.9324 66.4934 56.127 67.2577C55.7111 67.6521 54.9316 68.1753 54.3945 68.4204C53.509 68.8245 53.1359 68.8659 50.3906 68.8659C47.5434 68.8659 47.2994 68.8361 46.2879 68.3654C44.9236 67.7304 44.0156 66.8294 43.3756 65.4758C42.8738 64.4147 42.8707 64.3778 42.8092 58.6437L42.7473 52.8785H44.6918C47.5723 52.8785 47.542 52.9169 47.6219 49.1876C47.7191 44.6538 47.6518 44.5457 44.7266 44.5457H42.7734L42.7727 39.265C42.7719 33.3952 42.5775 31.6183 41.6184 28.7063C38.9391 20.5713 32.3795 14.5631 23.7457 12.3357C22.3428 11.9739 21.4107 11.916 15.332 11.8139L8.49609 11.6988L8.39844 9.71846C8.2627 6.96532 8.39902 7.05854 4.43691 7.00505C2.69492 6.9816 1.07754 7.04206 0.842773 7.13954ZM5.46875 24.1011V38.3445H4.19922H2.92969V24.1011V9.85779H4.19922H5.46875V24.1011ZM22.5055 15.0991C29.9076 16.5958 36.0414 21.8738 38.5852 28.9352C39.6604 31.9203 39.8438 33.4357 39.8438 39.3388V44.5457H30.2734H20.7031L20.7023 40.0401C20.7014 33.3923 21.0393 33.6936 13.584 33.6936H8.39844V24.198V14.7025H14.4713C19.8209 14.7025 20.7777 14.7497 22.5055 15.0991ZM97.0703 38.4414V52.6847H95.8008H94.5312V38.4414V24.198H95.8008H97.0703V38.4414ZM44.7266 48.7121V49.9717H30.3711H16.0156V48.7121V47.4525H30.3711H44.7266V48.7121ZM84.7656 59.5642V60.8238H70.4102H56.0547V59.5642V58.3046H70.4102H84.7656V59.5642ZM80.0779 65.8138C80.0775 70.6515 79.3693 74.4183 77.8695 77.5598C74.3697 84.8904 67.5396 89.7541 59.4727 90.6602C58.5059 90.7687 56.3307 90.8583 54.6387 90.8592L51.5625 90.8608V81.3652C51.5625 73.8999 51.6146 71.8689 51.8066 71.8658C51.941 71.8636 52.6564 71.7751 53.3965 71.6689C56.9981 71.1524 59.9377 68.397 60.6053 64.9121L60.8316 63.7306H70.4549H80.0781L80.0779 65.8138Z" fill="#121212"/>
</svg>
