<svg width="100" height="100" viewBox="0 0 100 100" fill="none" xmlns="http://www.w3.org/2000/svg">
<path fill-rule="evenodd" clip-rule="evenodd" d="M16.5465 0.200375C15.5016 0.464438 14.841 0.844321 14.1213 1.59471C13.025 2.73748 12.8906 3.33065 12.8906 7.02498V10.3515H11.2242C7.8918 10.3515 7.61719 10.7371 7.61719 15.417V18.7437L8.18633 19.3816C8.74531 20.0082 8.7916 20.0213 10.7742 20.1172L12.793 20.2148L12.8424 50.3418L12.8918 80.4687H10.5475H8.20312V79.4834C8.20312 78.1894 7.61816 77.539 6.4541 77.539H5.66406V75.8256V74.1123L6.36152 73.7365C8.28926 72.6984 8.67969 70.1418 7.17266 68.4254C6.36855 67.5096 5.56934 67.1875 4.10156 67.1875C2.63379 67.1875 1.83457 67.5096 1.03047 68.4254C-0.476562 70.1418 -0.0861328 72.6984 1.8416 73.7365L2.53906 74.1123V75.8256V77.539H1.74902C1.17051 77.539 0.830469 77.6674 0.479492 78.0185L0 78.4978L0.00429688 83.5361C0.00917969 89.2678 0.0794922 89.6031 1.53594 90.85L2.34375 91.5414V94.9957C2.34375 98.8902 2.52148 99.6947 3.43262 99.9234C4.15371 100.104 4.92188 99.7998 5.21758 99.2154C5.3875 98.8797 5.46387 97.6357 5.46582 95.1711L5.46875 91.6115L6.00586 91.331C6.30137 91.1767 6.78008 90.801 7.06973 90.4959C8.00977 89.5062 8.20312 88.7287 8.20312 85.9375V83.3861L10.498 83.441L12.793 83.4961L12.8906 87.0117C12.9996 90.9371 13.0779 91.2148 14.415 92.4226C15.5492 93.4474 16.3377 93.6525 19.1406 93.6514C21.4693 93.6504 21.6295 93.6242 22.6082 93.0828C24.3102 92.1414 25.1953 90.5547 25.1953 88.4455V87.5H26.732H28.2689L28.3629 88.9627C28.4381 90.1365 28.5693 90.6076 29.0279 91.3492C29.7357 92.4941 30.8777 93.317 32.0312 93.5133L32.9102 93.6627L32.9643 96.4306C33.0176 99.1523 33.027 99.2055 33.5277 99.5994C34.174 100.108 34.7713 100.108 35.4176 99.5994C35.9184 99.2055 35.9277 99.1523 35.9811 96.4306L36.0352 93.6627L36.8973 93.5158C38.4311 93.2543 39.8912 91.9769 40.4027 90.4494C40.525 90.0842 40.625 89.2713 40.625 88.6428V87.5H42.1592H43.6934L43.8064 88.8498C43.9352 90.3842 44.3951 91.4197 45.3441 92.3121C46.6195 93.5111 47.0973 93.6482 50 93.6482C52.9027 93.6482 53.3805 93.5111 54.6559 92.3121C55.6049 91.4197 56.0648 90.3842 56.1936 88.8498L56.3066 87.5H57.8408H59.375V88.6428C59.375 89.2713 59.475 90.0842 59.5973 90.4494C60.1088 91.9769 61.5689 93.2543 63.1027 93.5158L63.9648 93.6627L64.0189 96.4306C64.0723 99.1523 64.0816 99.2055 64.5824 99.5994C65.2287 100.108 65.826 100.108 66.4723 99.5994C66.9731 99.2055 66.9824 99.1523 67.0357 96.4306L67.0898 93.6627L67.9688 93.5133C69.1223 93.317 70.2643 92.4941 70.9721 91.3492C71.4307 90.6076 71.5619 90.1365 71.6371 88.9627L71.7311 87.5H73.2416H74.7521L74.8469 88.8183C74.9617 90.4182 75.4787 91.5074 76.5639 92.4363C77.6832 93.3945 78.6105 93.5994 81.4791 93.5224C83.7998 93.4601 83.9662 93.4281 84.8744 92.866C85.4645 92.5008 86.0555 91.9098 86.4207 91.3197C87.007 90.3725 87.0125 90.3369 87.1094 86.9305L87.207 83.4961L89.502 83.441L91.7969 83.3861V85.9375C91.7969 88.7287 91.9902 89.5062 92.9303 90.4959C93.2199 90.801 93.6988 91.1767 93.9941 91.331L94.5312 91.6115L94.5342 95.1711C94.5361 97.6357 94.6125 98.8797 94.7824 99.2154C95.0781 99.7998 95.8463 100.104 96.5674 99.9234C97.4785 99.6947 97.6562 98.8902 97.6562 94.9957V91.5414L98.4492 90.8627C98.8854 90.4892 99.4566 89.7392 99.7188 89.1961C100.186 88.2281 100.195 88.1072 100.195 83.2316C100.195 80.4945 100.146 78.3045 100.086 78.3646C100.026 78.425 99.766 78.2639 99.5088 78.0066C99.1697 77.6676 98.824 77.539 98.251 77.539H97.4609V75.8256V74.1123L98.1584 73.7365C98.9809 73.2937 99.5652 72.5353 99.7338 71.692C99.8006 71.3586 99.9316 71.0383 100.025 70.9805C100.119 70.9226 100.195 70.6996 100.195 70.4847C100.195 70.2699 100.118 70.1418 100.024 70.2002C99.9295 70.2584 99.8012 70.0512 99.7389 69.7394C99.5914 69.0015 98.516 67.7863 97.7145 67.4514C96.9018 67.1119 94.8951 67.1119 94.0824 67.4514C93.2289 67.808 92.2502 68.9639 91.993 69.9193C91.6043 71.3623 92.3223 73.0277 93.6385 73.7365L94.3359 74.1123V75.8256V77.539H93.5459C92.3818 77.539 91.7969 78.1894 91.7969 79.4834V80.4687H89.4531H87.1094V65.1367C87.1094 50.065 87.1027 49.798 86.7188 49.414C86.1371 48.8324 85.0918 48.8932 84.5846 49.5381C84.1811 50.051 84.1797 50.1183 84.1797 69.768V89.4832L83.6088 90.0541C83.0568 90.606 82.9754 90.625 81.1576 90.625C78.8645 90.625 78.2344 90.3668 77.9398 89.3062C77.6561 88.2848 77.6561 5.26991 77.9398 4.24842C78.2494 3.13397 78.9111 2.87987 81.2914 2.96092C83.1441 3.0242 83.2602 3.0537 83.7086 3.57538L84.1797 4.12342V22.8533C84.1797 36.4365 84.2408 41.7172 84.402 42.0709C84.8084 42.9631 86.2252 43.1152 86.8717 42.3363C87.0465 42.1256 87.1189 39.2785 87.1566 31.1344L87.207 20.2148L89.3504 20.159C92.0947 20.0875 92.3828 19.8853 92.3828 18.0324V16.7969H94.7266H97.0703V18.0324C97.0703 19.0713 97.1422 19.3353 97.5223 19.6926C98.1228 20.2566 99.0311 20.2445 99.5754 19.6652C99.9822 19.232 100 19.049 100 15.2922C100 10.767 99.9207 10.5078 98.5352 10.5078C97.4318 10.5078 97.0703 11.0289 97.0703 12.6193V13.8672H94.7266H92.3828V12.5889C92.3828 11.4918 92.3148 11.2424 91.9033 10.831C91.4525 10.3801 91.2961 10.3515 89.2787 10.3515H87.1336L87.0727 6.77088L87.0117 3.19022L86.4207 2.23514C86.0549 1.64413 85.465 1.05448 84.8738 0.688657C83.9607 0.124008 83.8053 0.0945159 81.3951 0.0286956C78.5533 -0.0488435 77.6316 0.173617 76.4328 1.22616C75.0783 2.41541 74.9119 3.00604 74.8385 6.88475L74.773 10.3515H73.2264H71.6797L71.6785 7.27538C71.6779 5.58338 71.5865 3.87186 71.4754 3.47166C71.1734 2.38416 70.1377 1.15819 69.0465 0.596664C68.1529 0.136703 67.8781 0.0976409 65.5326 0.0976409C63.2604 0.0976409 62.8891 0.146469 62.0611 0.554282C60.9488 1.10194 59.9121 2.25623 59.6018 3.29256C59.4703 3.73123 59.375 5.37381 59.375 7.20038V10.3515H57.8318H56.2887L56.2146 6.98241C56.1338 3.29764 55.9781 2.71112 54.7586 1.49139C53.5668 0.299789 52.8924 0.102914 50 0.102914C47.1076 0.102914 46.4332 0.299789 45.2414 1.49139C44.0219 2.71112 43.8662 3.29764 43.7854 6.98241L43.7113 10.3515H42.1682H40.625V7.20038C40.625 5.37381 40.5297 3.73123 40.3982 3.29256C40.0879 2.25623 39.0512 1.10194 37.9389 0.554282C37.1109 0.146469 36.7397 0.0976409 34.4674 0.0976409C32.1219 0.0976409 31.8471 0.136703 30.9535 0.596664C29.8623 1.15819 28.8266 2.38416 28.5246 3.47166C28.4135 3.87186 28.3221 5.58338 28.3215 7.27538L28.3203 10.3515H26.7578H25.1953V7.35526C25.1953 3.03748 24.7355 1.83416 22.6525 0.700375C21.7281 0.19725 21.4082 0.134946 19.4553 0.0775237C18.2617 0.0423675 16.9527 0.0976409 16.5465 0.200375ZM16.2998 3.60448L15.8203 4.08377V46.875V89.6662L16.2998 90.1455C16.7506 90.5965 16.907 90.625 18.9256 90.625C20.9129 90.625 21.1125 90.59 21.6199 90.1537L22.168 89.6822L22.2193 61.4064C22.277 29.808 22.148 32.4219 23.6488 32.4219C24.2123 32.4219 24.4811 32.543 24.7904 32.9365C25.1947 33.4502 25.1953 33.4885 25.1953 55.5928V77.7344H26.7578H28.3203V48.9258V20.1172H26.7578H25.1953V22.7668C25.1953 26.0988 25.0057 26.5535 23.6143 26.5596C22.2182 26.5654 22.2848 27.1203 22.2232 14.9648L22.168 4.06756L21.6199 3.59627C21.1127 3.15995 20.9127 3.12498 18.9256 3.12498C16.907 3.12498 16.7506 3.1535 16.2998 3.60448ZM31.8211 3.62909L31.3477 4.13299V46.9076V89.6822L31.8957 90.1537C32.4023 90.5894 32.6014 90.6246 34.5324 90.6187C36.7027 90.6123 37.0438 90.5068 37.4682 89.7101C37.7959 89.0945 37.7959 4.65545 37.4682 4.03983C37.0414 3.23866 36.7064 3.13768 34.4578 3.13123C32.3812 3.12518 32.2758 3.1451 31.8211 3.62909ZM47.3545 3.60448L46.875 4.08377V33.0857V62.0875L46.4176 62.6193C45.8387 63.2924 44.8918 63.3379 44.2762 62.7224L43.8477 62.2939L43.7963 41.2055L43.7449 20.1172H42.1842H40.6236L40.6732 48.8769L40.7227 77.6367L42.2258 77.6935L43.7287 77.7504L43.7883 73.4656C43.8422 69.5746 43.8818 69.143 44.2197 68.7701C44.7256 68.2117 45.8996 68.2117 46.4053 68.7703C46.7586 69.1605 46.7822 69.7029 46.875 79.5299L46.9727 89.8785L47.4338 90.2517C47.8248 90.5683 48.2191 90.625 50.0305 90.625C52.0377 90.625 52.1951 90.5961 52.6455 90.1455L53.125 89.6662V46.875V4.08377L52.6455 3.60448C52.1941 3.15311 52.0395 3.12498 50 3.12498C47.9605 3.12498 47.8059 3.15311 47.3545 3.60448ZM63.0689 3.37538C62.8986 3.50623 62.6568 3.80526 62.5318 4.03983C62.2041 4.65545 62.2041 89.0945 62.5318 89.7101C62.9562 90.5068 63.2973 90.6123 65.4676 90.6187C67.3986 90.6246 67.5977 90.5894 68.1043 90.1537L68.6523 89.6822V46.9076V4.13299L68.1789 3.62909C67.7242 3.1451 67.6188 3.12518 65.5422 3.13123C64.1504 3.13514 63.2684 3.22225 63.0689 3.37538ZM10.5469 15.2246V17.1875H11.7258H12.9047L12.8488 15.2832L12.793 13.3789L11.6699 13.3203L10.5469 13.2617V15.2246ZM25.1953 15.2344V17.1875H26.7578H28.3203V15.2344V13.2812H26.7578H25.1953V15.2344ZM40.7553 13.4115C40.6836 13.483 40.625 14.3619 40.625 15.3646V17.1875H42.1875H43.75V15.2344V13.2812H42.3178C41.5299 13.2812 40.8268 13.3398 40.7553 13.4115ZM56.25 15.2262V17.1875H57.8195H59.3891L59.3332 15.2832L59.2773 13.3789L57.7637 13.3219L56.25 13.2648V15.2262ZM71.6797 15.2344V17.1875H73.2422H74.8047V15.2344V13.2812H73.2422H71.6797V15.2344ZM87.2396 13.4115C87.168 13.483 87.1094 14.3619 87.1094 15.3646V17.1875H88.2812H89.4531V15.2344V13.2812H88.4115C87.8385 13.2812 87.3111 13.3398 87.2396 13.4115ZM56.25 48.934V77.7508L57.7637 77.6937L59.2773 77.6367L59.3268 48.8769L59.3764 20.1172H57.8131H56.25V48.934ZM71.6797 48.9258V77.7344H73.2422H74.8047V48.9258V20.1172H73.2422H71.6797V48.9258ZM3.35 70.29C3.20508 70.3818 3.11836 70.6223 3.15723 70.8242C3.21387 71.1183 3.40176 71.1914 4.10156 71.1914C4.80137 71.1914 4.98926 71.1183 5.0459 70.8242C5.12988 70.3875 4.77383 70.1232 4.10156 70.1232C3.83301 70.1232 3.49473 70.1982 3.35 70.29ZM95.1469 70.29C95.002 70.3818 94.9152 70.6223 94.9541 70.8242C95.0107 71.1183 95.1986 71.1914 95.8984 71.1914C96.5982 71.1914 96.7861 71.1183 96.8428 70.8242C96.9268 70.3875 96.5707 70.1232 95.8984 70.1232C95.6299 70.1232 95.2916 70.1982 95.1469 70.29ZM0.0308594 70.7031C0.0308594 70.9717 0.0751953 71.0816 0.129297 70.9473C0.183594 70.8131 0.183594 70.5933 0.129297 70.459C0.0751953 70.3248 0.0308594 70.4346 0.0308594 70.7031ZM0.0853516 83.5937C0.0853516 86.4404 0.112695 87.6051 0.145898 86.1816C0.179297 84.7582 0.179297 82.4293 0.145898 81.0058C0.112695 79.5824 0.0853516 80.7471 0.0853516 83.5937ZM2.92969 84.2773C2.92969 87.8256 2.95645 88.1127 3.32031 88.4765C3.53516 88.6914 3.88672 88.8672 4.10156 88.8672C4.31641 88.8672 4.66797 88.6914 4.88281 88.4765C5.24668 88.1127 5.27344 87.8256 5.27344 84.2773V80.4687H4.10156H2.92969V84.2773ZM94.7266 84.2773C94.7266 87.8256 94.7533 88.1127 95.1172 88.4765C95.332 88.6914 95.6836 88.8672 95.8984 88.8672C96.1133 88.8672 96.4648 88.6914 96.6797 88.4765C97.0436 88.1127 97.0703 87.8256 97.0703 84.2773V80.4687H95.8984H94.7266V84.2773ZM25.1953 82.5195V84.375H26.7578H28.3203V82.5195V80.664H26.7578H25.1953V82.5195ZM40.625 82.5195V84.375H42.1875H43.75V82.5195V80.664H42.1875H40.625V82.5195ZM56.25 82.5195V84.375H57.8125H59.375V82.5195V80.664H57.8125H56.25V82.5195ZM71.6797 82.5195V84.375H73.2422H74.8047V82.5195V80.664H73.2422H71.6797V82.5195Z" fill="black"/>
</svg>
