<svg width="60" height="100" viewBox="0 0 60 100" fill="none" xmlns="http://www.w3.org/2000/svg">
<path fillRule="evenodd" clipRule="evenodd" d="M17.2545 0.276603C16.0044 0.727384 14.9018 1.71195 14.2835 2.92992C13.7319 4.01606 12.227 9.26332 12.227 10.1004C12.227 11.0739 13.3161 11.768 14.269 11.4024C14.7378 11.2225 15.0313 10.5258 15.8229 7.71508C16.7342 4.47856 16.8235 4.26195 17.5274 3.58754L18.112 3.02758H30.8096H43.5071L44.1756 3.75707C44.6897 4.3182 44.8442 4.65688 44.8442 5.22348C44.8442 5.7057 42.7505 11.651 38.7803 22.4422C32.3559 39.9039 32.4965 39.4356 33.3514 40.5223C34.1325 41.5151 34.5596 41.6018 38.668 41.6018H42.4721L42.8768 41.0872C43.3387 40.5 43.3698 40.251 43.0649 39.5817C42.7122 38.8077 42.103 38.6721 38.9756 38.6721C37.3694 38.6721 36.0551 38.6282 36.0551 38.5743C36.0551 38.5204 38.6913 31.3108 41.9131 22.553C45.135 13.795 47.8251 6.29145 47.8913 5.87856C48.1694 4.13813 46.9272 1.78949 45.146 0.687931L44.1917 0.0978916L31.0901 0.0549228C20.4721 0.0199619 17.8495 0.0619541 17.2545 0.276603ZM11.0139 15.3424C10.6049 15.5643 10.396 15.9293 10.0962 16.9459C9.88248 17.6698 7.67408 25.3811 5.18834 34.0823C0.70045 49.792 0.669394 49.9135 0.750253 51.4651C0.811191 52.6371 0.962363 53.3014 1.35494 54.1237C1.97936 55.4313 3.63873 57.0709 4.95143 57.6772C5.87057 58.1016 5.99244 58.1063 17.9542 58.1602L30.029 58.2149L29.9184 58.7461C29.4936 60.7858 27.261 76.9063 27.3526 77.2713C27.6096 78.2953 29.3229 78.5495 29.9118 77.6508C30.0794 77.3948 30.7717 73.2901 31.6428 67.386C33.0239 58.0252 33.0799 57.5116 32.7973 56.8051C32.6258 56.3766 32.2301 55.8956 31.862 55.668C31.2401 55.2836 30.921 55.2737 19.2579 55.2737C10.3557 55.2737 7.086 55.2122 6.48795 55.0334C4.94693 54.5731 3.6442 52.7596 3.62779 51.0518C3.62486 50.742 5.79166 42.8797 8.44283 33.5799C11.9217 21.3774 13.227 16.5266 13.1331 16.1518C13.0587 15.8557 12.7559 15.5047 12.4292 15.3358C11.7374 14.9782 11.6846 14.9784 11.0139 15.3424ZM47.6126 39.3194C47.0485 39.92 47.0606 40.8282 47.6399 41.3725C48.0354 41.7438 48.3135 41.7971 49.8594 41.7971C53.3565 41.7971 54.8217 42.425 55.8479 44.3631C56.8838 46.3198 57.5448 44.7965 44.7577 69.9221C38.4432 82.3293 32.8407 93.3346 32.3077 94.378C31.1872 96.5717 30.4655 97.2012 29.318 96.986C28.6114 96.8534 27.9243 96.1567 27.7276 95.3733C27.6639 95.1194 27.9858 92.3176 28.4432 89.1471C29.3395 82.9329 29.336 82.645 28.3575 82.1991C27.7333 81.9147 26.9516 82.1235 26.5969 82.6694C26.1854 83.3024 24.6581 93.9514 24.7815 95.3268C25.1868 99.8481 30.4969 101.595 33.438 98.1747C34.3686 97.0922 58.8045 49.0922 59.1178 47.7309C60.0122 43.8461 57.2963 39.8254 53.2649 39.0657C52.6862 38.9567 51.2733 38.8674 50.1251 38.8674C48.1954 38.8674 48.0051 38.9016 47.6126 39.3194Z" fill="black"/>
</svg>
